<svg aria-hidden="true" style="position: absolute; width: 0; height: 0; overflow: hidden;" version="1.1" xmlns="http://www.w3.org/2000/svg" xmlns:xlink="http://www.w3.org/1999/xlink">
<defs>
<symbol id="icon-bag" viewBox="0 0 32 32">
<path d="M6.022 7.764c-0.278 0-0.571-0.117-0.776-0.322-0.425-0.425-0.425-1.128 0-1.553l5.318-5.318c0.425-0.425 1.128-0.425 1.553 0s0.425 1.128 0 1.553l-5.318 5.318c-0.22 0.205-0.498 0.322-0.777 0.322z"></path>
<path d="M25.978 7.764c-0.278 0-0.557-0.103-0.776-0.322l-5.318-5.318c-0.425-0.425-0.425-1.128 0-1.553s1.128-0.425 1.553 0l5.318 5.318c0.425 0.425 0.425 1.128 0 1.553-0.205 0.205-0.498 0.322-0.776 0.322z"></path>
<path d="M28.029 13.947c-0.103 0-0.205 0-0.308 0h-23.442c-1.026 0.015-2.198 0.015-3.047-0.835-0.674-0.659-0.982-1.685-0.982-3.194 0-4.029 2.945-4.029 4.351-4.029h22.797c1.407 0 4.351 0 4.351 4.029 0 1.524-0.308 2.535-0.982 3.194-0.762 0.762-1.787 0.835-2.74 0.835zM4.601 11.749h23.134c0.659 0.015 1.275 0.015 1.48-0.19 0.103-0.103 0.322-0.454 0.322-1.641 0-1.656-0.41-1.831-2.154-1.831h-22.783c-1.743 0-2.154 0.176-2.154 1.831 0 1.187 0.234 1.538 0.322 1.641 0.205 0.19 0.835 0.19 1.48 0.19h0.352z"></path>
<path d="M12.718 25.228c-0.601 0-1.099-0.498-1.099-1.099v-5.201c0-0.601 0.498-1.099 1.099-1.099s1.099 0.498 1.099 1.099v5.201c0 0.615-0.498 1.099-1.099 1.099z"></path>
<path d="M19.458 25.228c-0.601 0-1.099-0.498-1.099-1.099v-5.201c0-0.601 0.498-1.099 1.099-1.099s1.099 0.498 1.099 1.099v5.201c0 0.615-0.498 1.099-1.099 1.099z"></path>
<path d="M20.234 31.748h-8.835c-5.245 0-6.417-3.121-6.871-5.831l-2.066-12.673c-0.103-0.601 0.308-1.157 0.908-1.26s1.157 0.308 1.26 0.908l2.066 12.659c0.425 2.593 1.304 4 4.703 4h8.835c3.765 0 4.19-1.319 4.674-3.868l2.461-12.82c0.117-0.601 0.689-0.996 1.289-0.864 0.601 0.117 0.982 0.689 0.864 1.289l-2.461 12.82c-0.571 2.974-1.524 5.641-6.827 5.641z"></path>
</symbol>
<symbol id="icon-telegram" viewBox="0 0 31 32">
<path d="M15.359 0.64c8.483 0 15.36 6.877 15.36 15.36s-6.877 15.36-15.36 15.36-15.36-6.877-15.36-15.36c0-8.483 6.877-15.36 15.36-15.36zM20.658 22.261c0.282-0.866 1.606-9.505 1.769-11.208 0.050-0.515-0.114-0.858-0.432-1.012-0.386-0.185-0.957-0.093-1.621 0.147-0.91 0.328-12.538 5.265-13.209 5.551-0.637 0.271-1.239 0.565-1.239 0.994 0 0.301 0.179 0.47 0.67 0.645 0.511 0.182 1.799 0.573 2.561 0.783 0.733 0.202 1.566 0.026 2.034-0.264 0.495-0.308 6.214-4.134 6.624-4.47s0.737 0.094 0.402 0.43c-0.335 0.335-4.26 4.145-4.778 4.673-0.629 0.64-0.183 1.304 0.239 1.57 0.481 0.304 3.944 2.626 4.465 2.999s1.050 0.542 1.535 0.542c0.485-0.001 0.739-0.639 0.98-1.379z"></path>
</symbol>
<symbol id="icon-star-black" viewBox="0 0 32 32">
<path d="M15.123 27.778l-6.817 3.745c-0.921 0.506-2.060 0.136-2.544-0.826-0.193-0.383-0.259-0.822-0.189-1.249l1.302-7.932c0.105-0.639-0.098-1.29-0.542-1.742l-5.515-5.618c-0.745-0.759-0.76-2.005-0.034-2.784 0.289-0.31 0.668-0.512 1.078-0.574l7.621-1.157c0.614-0.093 1.144-0.496 1.418-1.077l3.408-7.217c0.46-0.975 1.59-1.375 2.523-0.894 0.371 0.192 0.672 0.506 0.855 0.894l3.408 7.217c0.274 0.581 0.805 0.984 1.418 1.077l7.621 1.157c1.029 0.156 1.743 1.155 1.593 2.231-0.060 0.428-0.253 0.824-0.549 1.127l-5.515 5.618c-0.444 0.452-0.646 1.104-0.542 1.742l1.302 7.932c0.176 1.071-0.513 2.089-1.538 2.273-0.408 0.073-0.828 0.004-1.195-0.198l-6.817-3.745c-0.549-0.301-1.204-0.301-1.753 0z"></path>
</symbol>
<symbol id="icon-star" viewBox="0 0 32 32">
<path d="M15.123 27.778l-6.817 3.745c-0.921 0.506-2.060 0.136-2.544-0.826-0.193-0.383-0.259-0.822-0.189-1.249l1.302-7.932c0.105-0.639-0.098-1.29-0.542-1.742l-5.515-5.618c-0.745-0.759-0.76-2.005-0.034-2.784 0.289-0.31 0.668-0.512 1.078-0.574l7.621-1.157c0.614-0.093 1.144-0.496 1.418-1.077l3.408-7.217c0.46-0.975 1.59-1.375 2.523-0.894 0.371 0.192 0.672 0.506 0.855 0.894l3.408 7.217c0.274 0.581 0.805 0.984 1.418 1.077l7.621 1.157c1.029 0.156 1.743 1.155 1.593 2.231-0.060 0.428-0.253 0.824-0.549 1.127l-5.515 5.618c-0.444 0.452-0.646 1.104-0.542 1.742l1.302 7.932c0.176 1.071-0.513 2.089-1.538 2.273-0.408 0.073-0.828 0.004-1.195-0.198l-6.817-3.745c-0.549-0.301-1.204-0.301-1.753 0zM13.606 25.018c1.493-0.82 3.293-0.82 4.787 0l4.521 2.484-0.899-5.475c-0.267-1.623 0.25-3.286 1.402-4.459l3.932-4.005-5.308-0.806c-1.661-0.252-3.076-1.326-3.794-2.846l-2.249-4.762-2.249 4.762c-0.718 1.52-2.132 2.594-3.794 2.846l-5.308 0.806 3.932 4.005c1.152 1.173 1.669 2.836 1.402 4.459l-0.899 5.475 4.521-2.484z"></path>
</symbol>
<symbol id="icon-instagram" viewBox="0 0 32 32">
<path d="M9.455 0c-5.215 0-9.455 4.24-9.455 9.455v13.091c0 5.215 4.24 9.455 9.455 9.455h13.091c5.215 0 9.455-4.24 9.455-9.455v-13.091c0-5.215-4.24-9.455-9.455-9.455h-13.091zM24.727 5.818c0.8 0 1.455 0.655 1.455 1.455s-0.655 1.455-1.455 1.455c-0.8 0-1.455-0.655-1.455-1.455s0.655-1.455 1.455-1.455zM16 8c4.415 0 8 3.585 8 8s-3.585 8-8 8c-4.415 0-8-3.585-8-8s3.585-8 8-8zM16 9.455c-3.607 0-6.545 2.938-6.545 6.545s2.938 6.545 6.545 6.545c3.607 0 6.545-2.938 6.545-6.545s-2.938-6.545-6.545-6.545z"></path>
</symbol>
<symbol id="icon-heart" viewBox="0 0 35 32">
<path d="M17.594 31.794c-0.507 0-0.998-0.065-1.407-0.213-6.252-2.144-16.186-9.754-16.186-20.998 0-5.728 4.632-10.376 10.327-10.376 2.766 0 5.352 1.080 7.267 3.011 1.915-1.931 4.501-3.011 7.267-3.011 5.695 0 10.327 4.664 10.327 10.376 0 11.26-9.934 18.854-16.186 20.998-0.409 0.147-0.9 0.213-1.407 0.213zM10.327 2.661c-4.337 0-7.872 3.551-7.872 7.921 0 11.178 10.753 17.397 14.533 18.69 0.295 0.098 0.933 0.098 1.227 0 3.764-1.293 14.533-7.496 14.533-18.69 0-4.37-3.535-7.921-7.872-7.921-2.488 0-4.795 1.162-6.285 3.175-0.458 0.622-1.506 0.622-1.964 0-1.522-2.029-3.813-3.175-6.301-3.175z"></path>
</symbol>
<symbol id="icon-glass" viewBox="0 0 32 32">
<path d="M15.269 30.285c-8.278 0-15.017-6.74-15.017-15.017s6.74-15.017 15.017-15.017c8.278 0 15.017 6.74 15.017 15.017s-6.74 15.017-15.017 15.017zM15.269 2.448c-7.077 0-12.82 5.758-12.82 12.82s5.743 12.82 12.82 12.82c7.077 0 12.82-5.758 12.82-12.82s-5.743-12.82-12.82-12.82z"></path>
<path d="M30.653 31.75c-0.278 0-0.557-0.103-0.777-0.322l-2.93-2.93c-0.425-0.425-0.425-1.128 0-1.553s1.128-0.425 1.553 0l2.93 2.93c0.425 0.425 0.425 1.128 0 1.553-0.22 0.22-0.498 0.322-0.777 0.322z"></path>
</symbol>
<symbol id="icon-arrow" viewBox="0 0 114 32">
<path d="M114.284 16l-22.857-13.197v26.393l22.857-13.197zM-0.002 18.286h93.714v-4.571h-93.714v4.571z"></path>
</symbol>
<symbol id="icon-viber" viewBox="0 0 28 32">
<path d="M27.613 7.365c-0.529-1.886-1.575-3.379-3.109-4.435-1.936-1.334-4.164-1.807-6.087-2.094-2.662-0.397-5.072-0.452-7.368-0.172-2.154 0.264-3.775 0.685-5.255 1.365-2.899 1.331-4.639 3.488-5.171 6.406-0.259 1.417-0.432 2.698-0.533 3.919-0.233 2.824-0.022 5.324 0.645 7.641 0.649 2.258 1.784 3.873 3.47 4.933 0.43 0.27 0.979 0.465 1.511 0.654 0.266 0.094 0.522 0.187 0.746 0.286v4.563c0 0.597 0.483 1.081 1.081 1.081 0.282 0 0.552-0.11 0.754-0.306l4.21-4.095c0.184-0.209 0.184-0.209 0.372-0.213 1.439-0.028 2.908-0.084 4.369-0.163 1.77-0.097 3.82-0.268 5.751-1.073 1.767-0.738 3.057-1.909 3.832-3.48 0.808-1.639 1.289-3.415 1.468-5.428 0.315-3.539 0.091-6.611-0.686-9.389zM20.283 20.834c-0.423 0.692-1.056 1.17-1.801 1.48-0.544 0.227-1.1 0.18-1.637-0.048-4.504-1.905-8.034-4.91-10.368-9.226-0.481-0.889-0.816-1.858-1.2-2.797-0.079-0.194-0.072-0.42-0.107-0.631 0.034-1.519 1.198-2.373 2.375-2.632 0.45-0.1 0.848 0.059 1.181 0.379 0.923 0.882 1.653 1.903 2.203 3.048 0.24 0.503 0.132 0.948-0.278 1.321-0.084 0.078-0.173 0.15-0.265 0.218-0.935 0.703-1.072 1.235-0.574 2.293 0.848 1.801 2.256 3.009 4.077 3.759 0.48 0.198 0.932 0.1 1.299-0.289 0.049-0.052 0.105-0.102 0.141-0.162 0.719-1.198 1.759-1.079 2.721-0.396 0.632 0.448 1.245 0.922 1.87 1.379 0.949 0.699 0.941 1.356 0.362 2.302zM14.879 8.429c-0.242 0-0.485 0.019-0.723 0.059-0.403 0.069-0.783-0.204-0.851-0.608-0.067-0.402 0.204-0.783 0.608-0.851 0.317-0.052 0.642-0.079 0.966-0.079 3.199 0 5.803 2.603 5.803 5.803 0 0.324-0.027 0.65-0.080 0.967-0.061 0.361-0.374 0.617-0.728 0.617-0.040 0-0.081-0.003-0.123-0.010-0.402-0.069-0.674-0.449-0.606-0.851 0.040-0.235 0.059-0.478 0.059-0.721 0-2.386-1.94-4.327-4.325-4.327zM18.097 13.23c0 0.407-0.331 0.738-0.738 0.738s-0.738-0.331-0.738-0.738c0-1.222-0.994-2.216-2.216-2.216-0.407 0-0.738-0.331-0.738-0.738s0.331-0.738 0.738-0.738c2.035-0.001 3.692 1.656 3.692 3.692zM23.068 14.13c-0.077 0.344-0.381 0.575-0.72 0.575-0.054 0-0.11-0.006-0.164-0.018-0.398-0.090-0.648-0.486-0.557-0.883 0.107-0.472 0.162-0.959 0.162-1.448 0-3.591-2.921-6.514-6.514-6.514-0.49 0-0.976 0.054-1.448 0.162-0.396 0.092-0.794-0.159-0.883-0.557-0.091-0.398 0.159-0.794 0.557-0.883 0.579-0.133 1.176-0.199 1.776-0.199 4.405 0 7.99 3.585 7.99 7.99 0 0.6-0.067 1.197-0.199 1.775z"></path>
</symbol>
</defs>
</svg>
